<svg width="56" height="56" viewBox="0 0 56 56" fill="none" xmlns="http://www.w3.org/2000/svg">
<path fill-rule="evenodd" clip-rule="evenodd" d="M12.4436 12.4436C16.5694 8.31785 22.1652 6 28 6V28L28 50C22.1652 50 16.5694 47.6821 12.4436 43.5563C8.31785 39.4305 6 33.8348 6 28C6 22.1652 8.31785 16.5695 12.4436 12.4436ZM28 28C28 33.8348 30.3178 39.4305 34.4436 43.5563C38.5695 47.6821 44.1652 50 50 50L50 28L50 6C44.1652 6 38.5695 8.31785 34.4436 12.4436C30.3179 16.5695 28 22.1652 28 28Z" fill="#38553A"/>
</svg>
